0
SECTION
2
HEADER
9
$INSUNITS
70
4
9
$ACADVER
1
AC1014
9
$HANDSEED
5
FFFF
0
ENDSEC
0
SECTION
2
TABLES
0
TABLE
2
VPORT
5
8
100
AcDbSymbolTable
0
ENDTAB
0
TABLE
2
LTYPE
5
5
100
AcDbSymbolTable
0
LTYPE
5
14
100
AcDbSymbolTableRecord
100
AcDbLinetypeTableRecord
2
BYBLOCK
70
0
0
LTYPE
5
15
100
AcDbSymbolTableRecord
100
AcDbLinetypeTableRecord
2
BYLAYER
70
0
0
ENDTAB
0
TABLE
2
LAYER
5
2
100
AcDbSymbolTable
70
2
0
LAYER
5
50
100
AcDbSymbolTableRecord
100
AcDbLayerTableRecord
2
0
70
0
6
CONTINUOUS
0
ENDTAB
0
TABLE
2
STYLE
5
3
100
AcDbSymbolTable
70
1
0
STYLE
5
11
100
AcDbSymbolTableRecord
100
AcDbTextStyleTableRecord
2
STANDARD
70
0
0
ENDTAB
0
TABLE
2
VIEW
5
6
100
AcDbSymbolTable
70
0
0
ENDTAB
0
TABLE
2
UCS
5
7
100
AcDbSymbolTable
70
0
0
ENDTAB
0
TABLE
2
APPID
5
9
100
AcDbSymbolTable
70
2
0
APPID
5
12
100
AcDbSymbolTableRecord
100
AcDbRegAppTableRecord
2
ACAD
70
0
0
ENDTAB
0
TABLE
2
DIMSTYLE
5
A
100
AcDbSymbolTable
70
1
0
ENDTAB
0
TABLE
2
BLOCK_RECORD
5
1
100
AcDbSymbolTable
70
1
0
BLOCK_RECORD
5
1F
100
AcDbSymbolTableRecord
100
AcDbBlockTableRecord
2
*MODEL_SPACE
0
BLOCK_RECORD
5
1B
100
AcDbSymbolTableRecord
100
AcDbBlockTableRecord
2
*PAPER_SPACE
0
ENDTAB
0
ENDSEC
0
SECTION
2
BLOCKS
0
BLOCK
5
20
100
AcDbEntity
100
AcDbBlockBegin
2
*MODEL_SPACE
0
ENDBLK
5
21
100
AcDbEntity
100
AcDbBlockEnd
0
BLOCK
5
1C
100
AcDbEntity
100
AcDbBlockBegin
2
*PAPER_SPACE
0
ENDBLK
5
1D
100
AcDbEntity
100
AcDbBlockEnd
0
ENDSEC
0
SECTION
2
ENTITIES
0
LWPOLYLINE
5
100
100
AcDbEntity
8
0
100
AcDbPolyline
90
4
70
1
43
0.0
10
191.00000000000085
20
635.42857142855712
10
191.00000000000085
20
646.85714285712845
10
195.00000000000088
20
646.85714285712845
10
195.00000000000088
20
635.42857142855712
0
LWPOLYLINE
5
101
100
AcDbEntity
8
0
100
AcDbPolyline
90
4
70
1
43
0.0
10
191.00000000000085
20
665.33333333332382
10
191.00000000000085
20
676.76190476189515
10
195.00000000000088
20
676.76190476189515
10
195.00000000000088
20
665.33333333332382
0
LWPOLYLINE
5
102
100
AcDbEntity
8
0
100
AcDbPolyline
90
4
70
1
43
0.0
10
191.00000000000085
20
695.23809523809052
10
191.00000000000085
20
706.66666666666185
10
195.00000000000088
20
706.66666666666174
10
195.00000000000088
20
695.23809523809041
0
LWPOLYLINE
5
103
100
AcDbEntity
8
0
100
AcDbPolyline
90
4
70
1
43
0.0
10
191.00000000000085
20
725.14285714285711
10
191.00000000000085
20
736.57142857142844
10
195.00000000000088
20
736.57142857142844
10
195.00000000000088
20
725.14285714285711
0
LWPOLYLINE
5
104
100
AcDbEntity
8
0
100
AcDbPolyline
90
4
70
1
43
0.0
10
164.7142857142866
20
635.42857142855712
10
164.7142857142866
20
646.85714285712845
10
168.71428571428663
20
646.85714285712845
10
168.71428571428663
20
635.42857142855712
0
LWPOLYLINE
5
105
100
AcDbEntity
8
0
100
AcDbPolyline
90
4
70
1
43
0.0
10
164.7142857142866
20
665.33333333332382
10
164.7142857142866
20
676.76190476189515
10
168.71428571428663
20
676.76190476189515
10
168.71428571428663
20
665.33333333332382
0
LWPOLYLINE
5
106
100
AcDbEntity
8
0
100
AcDbPolyline
90
4
70
1
43
0.0
10
164.7142857142866
20
695.23809523809052
10
164.7142857142866
20
706.66666666666185
10
168.71428571428663
20
706.66666666666174
10
168.71428571428663
20
695.23809523809041
0
LWPOLYLINE
5
107
100
AcDbEntity
8
0
100
AcDbPolyline
90
4
70
1
43
0.0
10
164.7142857142866
20
725.14285714285711
10
164.7142857142866
20
736.57142857142844
10
168.71428571428663
20
736.57142857142844
10
168.71428571428663
20
725.14285714285711
0
LWPOLYLINE
5
108
100
AcDbEntity
8
0
100
AcDbPolyline
90
4
70
1
43
0.0
10
138.4285714285723
20
635.42857142855712
10
138.4285714285723
20
646.85714285712845
10
142.42857142857233
20
646.85714285712845
10
142.42857142857233
20
635.42857142855712
0
LWPOLYLINE
5
109
100
AcDbEntity
8
0
100
AcDbPolyline
90
4
70
1
43
0.0
10
138.4285714285723
20
665.33333333332382
10
138.4285714285723
20
676.76190476189515
10
142.42857142857233
20
676.76190476189515
10
142.42857142857233
20
665.33333333332382
0
LWPOLYLINE
5
110
100
AcDbEntity
8
0
100
AcDbPolyline
90
4
70
1
43
0.0
10
138.4285714285723
20
695.23809523809052
10
138.4285714285723
20
706.66666666666185
10
142.42857142857233
20
706.66666666666174
10
142.42857142857233
20
695.23809523809041
0
LWPOLYLINE
5
111
100
AcDbEntity
8
0
100
AcDbPolyline
90
4
70
1
43
0.0
10
138.4285714285723
20
725.14285714285711
10
138.4285714285723
20
736.57142857142844
10
142.42857142857233
20
736.57142857142844
10
142.42857142857233
20
725.14285714285711
0
LWPOLYLINE
5
112
100
AcDbEntity
8
0
100
AcDbPolyline
90
4
70
1
43
0.0
10
112.14285714285805
20
635.42857142855712
10
112.14285714285805
20
646.85714285712845
10
116.14285714285806
20
646.85714285712845
10
116.14285714285806
20
635.42857142855712
0
LWPOLYLINE
5
113
100
AcDbEntity
8
0
100
AcDbPolyline
90
4
70
1
43
0.0
10
112.14285714285805
20
665.33333333332382
10
112.14285714285805
20
676.76190476189515
10
116.14285714285806
20
676.76190476189515
10
116.14285714285806
20
665.33333333332382
0
LWPOLYLINE
5
114
100
AcDbEntity
8
0
100
AcDbPolyline
90
4
70
1
43
0.0
10
112.14285714285805
20
695.23809523809052
10
112.14285714285805
20
706.66666666666185
10
116.14285714285806
20
706.66666666666174
10
116.14285714285806
20
695.23809523809041
0
LWPOLYLINE
5
115
100
AcDbEntity
8
0
100
AcDbPolyline
90
4
70
1
43
0.0
10
112.14285714285805
20
725.14285714285711
10
112.14285714285805
20
736.57142857142844
10
116.14285714285806
20
736.57142857142844
10
116.14285714285806
20
725.14285714285711
0
LWPOLYLINE
5
116
100
AcDbEntity
8
0
100
AcDbPolyline
90
4
70
1
43
0.0
10
85.857142857143771
20
635.42857142855712
10
85.857142857143771
20
646.85714285712845
10
89.857142857143799
20
646.85714285712845
10
89.857142857143799
20
635.42857142855712
0
LWPOLYLINE
5
117
100
AcDbEntity
8
0
100
AcDbPolyline
90
4
70
1
43
0.0
10
85.857142857143771
20
665.33333333332382
10
85.857142857143771
20
676.76190476189515
10
89.857142857143799
20
676.76190476189515
10
89.857142857143799
20
665.33333333332382
0
LWPOLYLINE
5
118
100
AcDbEntity
8
0
100
AcDbPolyline
90
4
70
1
43
0.0
10
85.857142857143771
20
695.23809523809052
10
85.857142857143771
20
706.66666666666185
10
89.857142857143799
20
706.66666666666174
10
89.857142857143799
20
695.23809523809041
0
LWPOLYLINE
5
119
100
AcDbEntity
8
0
100
AcDbPolyline
90
4
70
1
43
0.0
10
85.857142857143771
20
725.14285714285711
10
85.857142857143771
20
736.57142857142844
10
89.857142857143799
20
736.57142857142844
10
89.857142857143799
20
725.14285714285711
0
LWPOLYLINE
5
120
100
AcDbEntity
8
0
100
AcDbPolyline
90
4
70
1
43
0.0
10
59.571428571429507
20
635.42857142855712
10
59.571428571429507
20
646.85714285712845
10
63.571428571429529
20
646.85714285712845
10
63.571428571429536
20
635.42857142855712
0
LWPOLYLINE
5
121
100
AcDbEntity
8
0
100
AcDbPolyline
90
4
70
1
43
0.0
10
59.571428571429507
20
665.33333333332382
10
59.571428571429507
20
676.76190476189515
10
63.571428571429529
20
676.76190476189515
10
63.571428571429536
20
665.33333333332382
0
LWPOLYLINE
5
122
100
AcDbEntity
8
0
100
AcDbPolyline
90
4
70
1
43
0.0
10
59.571428571429507
20
695.23809523809052
10
59.571428571429507
20
706.66666666666185
10
63.571428571429529
20
706.66666666666174
10
63.571428571429536
20
695.23809523809041
0
LWPOLYLINE
5
123
100
AcDbEntity
8
0
100
AcDbPolyline
90
4
70
1
43
0.0
10
59.571428571429507
20
725.14285714285711
10
59.571428571429507
20
736.57142857142844
10
63.571428571429529
20
736.57142857142844
10
63.571428571429536
20
725.14285714285711
0
LWPOLYLINE
5
124
100
AcDbEntity
8
0
100
AcDbPolyline
90
4
70
1
43
0.0
10
33.285714285715223
20
635.42857142855712
10
33.285714285715223
20
646.85714285712845
10
37.285714285715244
20
646.85714285712845
10
37.285714285715244
20
635.42857142855712
0
LWPOLYLINE
5
125
100
AcDbEntity
8
0
100
AcDbPolyline
90
4
70
1
43
0.0
10
33.285714285715223
20
665.33333333332382
10
33.285714285715223
20
676.76190476189515
10
37.285714285715244
20
676.76190476189515
10
37.285714285715244
20
665.33333333332382
0
LWPOLYLINE
5
126
100
AcDbEntity
8
0
100
AcDbPolyline
90
4
70
1
43
0.0
10
33.285714285715223
20
695.23809523809052
10
33.285714285715223
20
706.66666666666185
10
37.285714285715244
20
706.66666666666174
10
37.285714285715244
20
695.23809523809041
0
LWPOLYLINE
5
127
100
AcDbEntity
8
0
100
AcDbPolyline
90
4
70
1
43
0.0
10
33.285714285715223
20
725.14285714285711
10
33.285714285715223
20
736.57142857142844
10
37.285714285715244
20
736.57142857142844
10
37.285714285715244
20
725.14285714285711
0
LWPOLYLINE
5
128
100
AcDbEntity
8
0
100
AcDbPolyline
90
4
70
1
43
0.0
10
7.0000000000009566
20
635.42857142857144
10
7.0000000000009566
20
646.85714285714289
10
11.000000000000975
20
646.85714285714289
10
11.000000000000975
20
635.42857142857133
0
LWPOLYLINE
5
129
100
AcDbEntity
8
0
100
AcDbPolyline
90
4
70
1
43
0.0
10
7.0000000000009566
20
665.33333333333326
10
7.0000000000009566
20
676.7619047619047
10
11.000000000000975
20
676.7619047619047
10
11.000000000000975
20
665.33333333333326
0
LWPOLYLINE
5
130
100
AcDbEntity
8
0
100
AcDbPolyline
90
4
70
1
43
0.0
10
7.0000000000009566
20
695.23809523809518
10
7.0000000000009566
20
706.66666666666652
10
11.000000000000975
20
706.66666666666652
10
11.000000000000975
20
695.23809523809518
0
LWPOLYLINE
5
131
100
AcDbEntity
8
0
100
AcDbPolyline
90
4
70
1
43
0.0
10
7.0000000000009566
20
725.14285714285711
10
7.0000000000009566
20
736.57142857142844
10
11.000000000000975
20
736.57142857142844
10
11.000000000000975
20
725.14285714285711
0
CIRCLE
5
132
100
AcDbEntity
8
0
100
AcDbCircle
10
23.000000000000963
20
693.93692936561001
30
0
40
7.4999999999999964
210
0
220
-0
230
1
0
CIRCLE
5
133
100
AcDbEntity
8
0
100
AcDbCircle
10
179.00000000000091
20
633.93692936561001
30
0
40
7.4999999999999964
210
0
220
-0
230
1
0
CIRCLE
5
134
100
AcDbEntity
8
0
100
AcDbCircle
10
179.00000000000091
20
713.93692936561001
30
0
40
7.5000000000000053
210
0
220
-0
230
1
0
CIRCLE
5
135
100
AcDbEntity
8
0
100
AcDbCircle
10
179.00000000000091
20
673.93692936561001
30
0
40
7.4999999999999964
210
0
220
-0
230
1
0
CIRCLE
5
136
100
AcDbEntity
8
0
100
AcDbCircle
10
179.00000000000091
20
653.93692936561001
30
0
40
7.4999999999999964
210
0
220
-0
230
1
0
CIRCLE
5
137
100
AcDbEntity
8
0
100
AcDbCircle
10
179.00000000000091
20
733.93692936561001
30
0
40
7.4999999999999964
210
0
220
-0
230
1
0
CIRCLE
5
138
100
AcDbEntity
8
0
100
AcDbCircle
10
179.00000000000091
20
693.93692936561001
30
0
40
7.4999999999999876
210
0
220
-0
230
1
0
CIRCLE
5
139
100
AcDbEntity
8
0
100
AcDbCircle
10
153.00000000000091
20
633.93692936561001
30
0
40
7.4999999999999964
210
0
220
-0
230
1
0
CIRCLE
5
140
100
AcDbEntity
8
0
100
AcDbCircle
10
153.00000000000091
20
713.93692936561001
30
0
40
7.5000000000000053
210
0
220
-0
230
1
0
CIRCLE
5
141
100
AcDbEntity
8
0
100
AcDbCircle
10
49.000000000000945
20
633.93692936561001
30
0
40
7.4999999999999964
210
0
220
-0
230
1
0
CIRCLE
5
142
100
AcDbEntity
8
0
100
AcDbCircle
10
49.000000000000945
20
713.93692936561001
30
0
40
7.5000000000000053
210
0
220
-0
230
1
0
CIRCLE
5
143
100
AcDbEntity
8
0
100
AcDbCircle
10
49.000000000000945
20
673.93692936561001
30
0
40
7.4999999999999964
210
0
220
-0
230
1
0
CIRCLE
5
144
100
AcDbEntity
8
0
100
AcDbCircle
10
49.000000000000945
20
653.93692936561001
30
0
40
7.4999999999999964
210
0
220
-0
230
1
0
CIRCLE
5
145
100
AcDbEntity
8
0
100
AcDbCircle
10
49.000000000000945
20
733.93692936561001
30
0
40
7.4999999999999964
210
0
220
-0
230
1
0
CIRCLE
5
146
100
AcDbEntity
8
0
100
AcDbCircle
10
49.000000000000945
20
693.93692936561001
30
0
40
7.4999999999999876
210
0
220
-0
230
1
0
CIRCLE
5
147
100
AcDbEntity
8
0
100
AcDbCircle
10
23.000000000000963
20
653.93692936561001
30
0
40
7.4999999999999964
210
0
220
-0
230
1
0
CIRCLE
5
148
100
AcDbEntity
8
0
100
AcDbCircle
10
23.000000000000963
20
633.93692936561001
30
0
40
7.4999999999999964
210
0
220
-0
230
1
0
CIRCLE
5
149
100
AcDbEntity
8
0
100
AcDbCircle
10
23.000000000000963
20
713.93692936561001
30
0
40
7.5000000000000142
210
0
220
-0
230
1
0
CIRCLE
5
150
100
AcDbEntity
8
0
100
AcDbCircle
10
23.000000000000963
20
733.93692936561001
30
0
40
7.4999999999999964
210
0
220
-0
230
1
0
CIRCLE
5
151
100
AcDbEntity
8
0
100
AcDbCircle
10
23.000000000000963
20
673.93692936561001
30
0
40
7.4999999999999964
210
0
220
-0
230
1
0
CIRCLE
5
152
100
AcDbEntity
8
0
100
AcDbCircle
10
75.000000000000938
20
693.93692936561001
30
0
40
7.4999999999999876
210
0
220
-0
230
1
0
CIRCLE
5
153
100
AcDbEntity
8
0
100
AcDbCircle
10
75.000000000000938
20
733.93692936561001
30
0
40
7.4999999999999964
210
0
220
-0
230
1
0
CIRCLE
5
154
100
AcDbEntity
8
0
100
AcDbCircle
10
75.000000000000938
20
673.93692936561001
30
0
40
7.4999999999999964
210
0
220
-0
230
1
0
CIRCLE
5
155
100
AcDbEntity
8
0
100
AcDbCircle
10
75.000000000000938
20
653.93692936561001
30
0
40
7.4999999999999964
210
0
220
-0
230
1
0
CIRCLE
5
156
100
AcDbEntity
8
0
100
AcDbCircle
10
75.000000000000938
20
713.93692936561001
30
0
40
7.5000000000000053
210
0
220
-0
230
1
0
CIRCLE
5
157
100
AcDbEntity
8
0
100
AcDbCircle
10
75.000000000000938
20
633.93692936561001
30
0
40
7.4999999999999964
210
0
220
-0
230
1
0
CIRCLE
5
158
100
AcDbEntity
8
0
100
AcDbCircle
10
101.00000000000092
20
733.93692936561001
30
0
40
7.4999999999999947
210
0
220
-0
230
1
0
CIRCLE
5
159
100
AcDbEntity
8
0
100
AcDbCircle
10
101.00000000000092
20
693.93692936561001
30
0
40
7.4999999999999893
210
0
220
-0
230
1
0
CIRCLE
5
160
100
AcDbEntity
8
0
100
AcDbCircle
10
101.00000000000092
20
653.93692936561001
30
0
40
7.4999999999999982
210
0
220
-0
230
1
0
CIRCLE
5
161
100
AcDbEntity
8
0
100
AcDbCircle
10
101.00000000000092
20
673.93692936561001
30
0
40
7.4999999999999956
210
0
220
-0
230
1
0
CIRCLE
5
162
100
AcDbEntity
8
0
100
AcDbCircle
10
127.00000000000091
20
693.93692936561001
30
0
40
7.4999999999999876
210
0
220
-0
230
1
0
CIRCLE
5
163
100
AcDbEntity
8
0
100
AcDbCircle
10
127.00000000000091
20
733.93692936561001
30
0
40
7.4999999999999964
210
0
220
-0
230
1
0
CIRCLE
5
164
100
AcDbEntity
8
0
100
AcDbCircle
10
153.00000000000091
20
653.93692936561001
30
0
40
7.4999999999999964
210
0
220
-0
230
1
0
CIRCLE
5
165
100
AcDbEntity
8
0
100
AcDbCircle
10
153.00000000000091
20
733.93692936561001
30
0
40
7.4999999999999964
210
0
220
-0
230
1
0
CIRCLE
5
166
100
AcDbEntity
8
0
100
AcDbCircle
10
127.00000000000091
20
673.93692936561001
30
0
40
7.4999999999999964
210
0
220
-0
230
1
0
CIRCLE
5
167
100
AcDbEntity
8
0
100
AcDbCircle
10
127.00000000000091
20
713.93692936561001
30
0
40
7.5000000000000053
210
0
220
-0
230
1
0
CIRCLE
5
168
100
AcDbEntity
8
0
100
AcDbCircle
10
101.00000000000092
20
633.93692936561001
30
0
40
7.4999999999999964
210
0
220
-0
230
1
0
CIRCLE
5
169
100
AcDbEntity
8
0
100
AcDbCircle
10
127.00000000000091
20
653.93692936561001
30
0
40
7.4999999999999964
210
0
220
-0
230
1
0
CIRCLE
5
170
100
AcDbEntity
8
0
100
AcDbCircle
10
127.00000000000091
20
633.93692936561001
30
0
40
7.4999999999999964
210
0
220
-0
230
1
0
CIRCLE
5
171
100
AcDbEntity
8
0
100
AcDbCircle
10
153.00000000000091
20
693.93692936561001
30
0
40
7.4999999999999876
210
0
220
-0
230
1
0
CIRCLE
5
172
100
AcDbEntity
8
0
100
AcDbCircle
10
101.00000000000092
20
713.93692936561001
30
0
40
7.500000000000008
210
0
220
-0
230
1
0
CIRCLE
5
173
100
AcDbEntity
8
0
100
AcDbCircle
10
153.00000000000091
20
673.93692936561001
30
0
40
7.4999999999999964
210
0
220
-0
230
1
0
LWPOLYLINE
5
174
100
AcDbEntity
8
0
100
AcDbPolyline
90
4
70
1
43
0.0
10
201.00000000000082
20
624
10
201.00000000000085
20
748
10
1.0000000000009812
20
748
10
1.0000000000009734
20
624
0
LWPOLYLINE
5
175
100
AcDbEntity
8
0
100
AcDbPolyline
90
76
70
1
43
0.0
10
189.57142857144333
20
620.99999999999989
10
189.57142857144333
20
616.99999999999989
10
178.14285714287195
20
617
10
178.14285714287195
20
621
10
156.42857142858338
20
621
10
156.42857142858335
20
616.99999999999989
10
145.00000000001197
20
617
10
145.00000000001197
20
621
10
123.28571428572339
20
621
10
123.28571428572339
20
616.99999999999989
10
111.85714285715196
20
617
10
111.85714285715196
20
621
10
90.142857142863434
20
621
10
90.142857142863448
20
616.99999999999989
10
78.714285714292004
20
617
10
78.714285714292004
20
621
10
57.000000000003453
20
621
10
57.000000000003467
20
616.99999999999989
10
45.571428571432051
20
617
10
45.571428571432051
20
621
10
23.857142857143483
20
621
10
23.857142857143497
20
616.99999999999989
10
12.428571428572067
20
617
10
12.428571428572067
20
621
10
1.0000000000006537
20
621
10
1.0000000000006537
20
609.57142857142844
10
5.0000000000006359
20
609.57142857142844
10
5.0000000000006359
20
598.142857142857
10
1.0000000000006535
20
598.142857142857
10
1.0000000000006537
20
586.71428571428567
10
5.0000000000006359
20
586.71428571428567
10
5.0000000000006359
20
575.28571428571422
10
1.0000000000006535
20
575.28571428571422
10
1.0000000000006537
20
563.85714285714278
10
5.0000000000006359
20
563.85714285714278
10
5.0000000000006359
20
552.42857142857133
10
1.0000000000006535
20
552.42857142857133
10
1.0000000000006537
20
541
10
12.428571428572067
20
541
10
12.428571428572067
20
544.99999999999989
10
23.857142857143497
20
544.99999999999989
10
23.857142857143497
20
541
10
45.571428571429195
20
541
10
45.571428571429195
20
544.99999999999989
10
57.000000000000597
20
544.99999999999989
10
57.000000000000597
20
541
10
78.714285714286319
20
541
10
78.714285714286319
20
544.99999999999989
10
90.142857142857736
20
544.99999999999989
10
90.142857142857736
20
541
10
111.8571428571434
20
541
10
111.8571428571434
20
544.99999999999989
10
123.28571428571482
20
544.99999999999989
10
123.28571428571482
20
541
10
145.00000000000054
20
541
10
145.00000000000054
20
544.99999999999989
10
156.42857142857196
20
544.99999999999989
10
156.42857142857196
20
541
10
178.14285714285768
20
541
10
178.14285714285768
20
544.99999999999989
10
189.57142857142907
20
544.99999999999989
10
189.57142857142907
20
541
10
210.00000000000051
20
541
10
210.00000000000051
20
552.42857142857133
10
206.00000000000051
20
552.42857142857133
10
206.00000000000051
20
563.85714285714278
10
210.00000000000051
20
563.85714285714278
10
210.00000000000051
20
575.28571428571422
10
206.00000000000051
20
575.28571428571422
10
206.00000000000051
20
586.71428571428567
10
210.00000000000051
20
586.71428571428567
10
210.00000000000051
20
598.142857142857
10
206.00000000000051
20
598.142857142857
10
206.00000000000051
20
609.57142857142844
10
210.00000000000051
20
609.57142857142844
10
210.00000000000051
20
621
0
LWPOLYLINE
5
176
100
AcDbEntity
8
0
100
AcDbPolyline
90
36
70
1
43
0.0
10
6.0000000000007319
20
527.66666666666686
10
6.0000000000007248
20
538.00000000000023
10
207.00000000000068
20
538.00000000000023
10
207.00000000000068
20
527.66666666666686
10
211.00000000000065
20
527.66666666666686
10
211.00000000000065
20
517.33333333333348
10
207.00000000000068
20
517.33333333333348
10
207.00000000000068
20
507.00000000000017
10
190.57142857142924
20
507.00000000000017
10
190.57142857142924
20
503.00000000000017
10
179.14285714285782
20
503.00000000000017
10
179.14285714285782
20
507.00000000000017
10
157.42857142857213
20
507.00000000000017
10
157.42857142857213
20
503.00000000000017
10
146.00000000000068
20
503.00000000000017
10
146.00000000000068
20
507.00000000000017
10
124.28571428571496
20
507.00000000000017
10
124.28571428571496
20
503.00000000000017
10
112.85714285714354
20
503.00000000000017
10
112.85714285714356
20
507.00000000000017
10
91.142857142857849
20
507.00000000000017
10
91.142857142857849
20
503.00000000000017
10
79.714285714286447
20
503.00000000000017
10
79.714285714286433
20
507.00000000000017
10
58.000000000000718
20
507.00000000000017
10
58.000000000000718
20
503.00000000000017
10
46.571428571429301
20
503.00000000000017
10
46.571428571429301
20
507.00000000000017
10
24.857142857143604
20
507.00000000000017
10
24.857142857143604
20
503.00000000000017
10
13.428571428572166
20
503.00000000000017
10
13.428571428572166
20
507.00000000000017
10
6.0000000000007319
20
507.00000000000017
10
6.0000000000007319
20
517.33333333333348
10
2.000000000000747
20
517.33333333333348
10
2.0000000000007474
20
527.66666666666686
0
LWPOLYLINE
5
177
100
AcDbEntity
8
0
100
AcDbPolyline
90
20
70
1
43
0.0
10
277.5714285714314
20
514.99999999999909
10
260.42857142857429
20
514.99999999999932
10
260.42857142857434
20
518.9999999999992
10
249.00000000000296
20
518.99999999999943
10
249.0000000000029
20
514.99999999999932
10
231.85714285714582
20
514.99999999999955
10
231.8571428571459
20
518.99999999999966
10
220.42857142857451
20
518.99999999999966
10
220.42857142857446
20
514.99999999999977
10
209.00000000000307
20
514.99999999999989
10
209.00000000000304
20
510.99999999999977
10
333.0000000000025
20
510.99999999999841
10
333.00000000000261
20
514.99999999999841
10
317.57142857143123
20
514.99999999999864
10
317.57142857143128
20
518.99999999999852
10
306.1428571428599
20
518.99999999999875
10
306.14285714285984
20
514.99999999999875
10
289.00000000000273
20
514.99999999999898
10
289.00000000000284
20
518.99999999999886
10
277.5714285714314
20
518.99999999999909
0
LWPOLYLINE
5
178
100
AcDbEntity
8
0
100
AcDbPolyline
90
20
70
1
43
0.0
10
279.99999999999994
20
505.57142857143481
10
262.85714285714283
20
505.57142857143589
10
262.85714285714261
20
501.57142857143589
10
251.42857142857122
20
501.57142857143663
10
251.42857142857144
20
505.57142857143663
10
234.28571428571433
20
505.57142857143765
10
234.28571428571411
20
501.57142857143765
10
222.85714285714266
20
501.57142857143845
10
222.85714285714292
20
505.57142857143845
10
211.42857142857153
20
505.57142857143913
10
211.42857142857179
20
509.57142857143924
10
335.42857142857144
20
509.57142857143134
10
335.42857142857122
20
505.57142857143128
10
319.99999999999983
20
505.57142857143225
10
319.99999999999955
20
501.57142857143231
10
308.57142857142821
20
501.57142857143299
10
308.57142857142838
20
505.57142857143305
10
291.42857142857133
20
505.57142857143413
10
291.4285714285711
20
501.57142857143413
10
279.99999999999966
20
501.57142857143481
0
LWPOLYLINE
5
179
100
AcDbEntity
8
0
100
AcDbPolyline
90
36
70
1
43
0.0
10
216
20
556.00000000000023
10
216
20
545.66666666666697
10
212.00000000000003
20
545.66666666666697
10
212.00000000000003
20
535.33333333333348
10
216
20
535.33333333333348
10
216
20
525.00000000000023
10
223.42857142857144
20
525.00000000000023
10
223.42857142857144
20
521.00000000000023
10
234.85714285714289
20
521.00000000000023
10
234.85714285714289
20
525.00000000000023
10
256.57142857142856
20
525.00000000000023
10
256.57142857142867
20
521.00000000000023
10
268.00000000000006
20
521.00000000000023
10
268.00000000000006
20
525.00000000000023
10
289.71428571428578
20
525.00000000000023
10
289.71428571428578
20
521.00000000000023
10
301.14285714285717
20
521.00000000000023
10
301.14285714285722
20
525.00000000000023
10
322.85714285714289
20
525.00000000000023
10
322.85714285714289
20
521.00000000000023
10
334.28571428571433
20
521.00000000000023
10
334.28571428571433
20
525.00000000000023
10
356
20
525.00000000000023
10
356
20
521.00000000000023
10
367.42857142857144
20
521.00000000000023
10
367.42857142857144
20
525.00000000000023
10
389.14285714285717
20
525.00000000000023
10
389.14285714285722
20
521.00000000000023
10
400.57142857142867
20
521.00000000000023
10
400.57142857142856
20
525.00000000000023
10
417
20
525.00000000000023
10
417.00000000000011
20
535.33333333333348
10
421.00000000000011
20
535.3333333333336
10
421
20
545.66666666666697
10
417
20
545.66666666666697
10
417
20
556.00000000000023
0
LWPOLYLINE
5
180
100
AcDbEntity
8
0
100
AcDbPolyline
90
4
70
1
43
0.0
10
392.00000000000045
20
635.42857142855701
10
392.00000000000045
20
646.85714285712834
10
396.00000000000051
20
646.85714285712834
10
396.00000000000045
20
635.42857142855701
0
LWPOLYLINE
5
181
100
AcDbEntity
8
0
100
AcDbPolyline
90
4
70
1
43
0.0
10
392.00000000000045
20
665.33333333332371
10
392.00000000000045
20
676.76190476189504
10
396.00000000000051
20
676.76190476189504
10
396.00000000000045
20
665.33333333332371
0
LWPOLYLINE
5
182
100
AcDbEntity
8
0
100
AcDbPolyline
90
4
70
1
43
0.0
10
392.00000000000045
20
695.23809523809041
10
392.00000000000045
20
706.66666666666174
10
396.00000000000051
20
706.66666666666163
10
396.00000000000045
20
695.23809523809018
0
LWPOLYLINE
5
183
100
AcDbEntity
8
0
100
AcDbPolyline
90
4
70
1
43
0.0
10
392.00000000000045
20
725.14285714285688
10
392.00000000000045
20
736.57142857142833
10
396.00000000000051
20
736.57142857142833
10
396.00000000000045
20
725.14285714285688
0
LWPOLYLINE
5
184
100
AcDbEntity
8
0
100
AcDbPolyline
90
4
70
1
43
0.0
10
365.71428571428623
20
635.42857142855701
10
365.71428571428623
20
646.85714285712834
10
369.71428571428623
20
646.85714285712834
10
369.71428571428623
20
635.42857142855701
0
LWPOLYLINE
5
185
100
AcDbEntity
8
0
100
AcDbPolyline
90
4
70
1
43
0.0
10
365.71428571428623
20
665.33333333332371
10
365.71428571428623
20
676.76190476189504
10
369.71428571428623
20
676.76190476189504
10
369.71428571428623
20
665.33333333332371
0
LWPOLYLINE
5
186
100
AcDbEntity
8
0
100
AcDbPolyline
90
4
70
1
43
0.0
10
365.71428571428623
20
695.23809523809041
10
365.71428571428623
20
706.66666666666174
10
369.71428571428623
20
706.66666666666163
10
369.71428571428623
20
695.23809523809018
0
LWPOLYLINE
5
187
100
AcDbEntity
8
0
100
AcDbPolyline
90
4
70
1
43
0.0
10
365.71428571428623
20
725.14285714285688
10
365.71428571428623
20
736.57142857142833
10
369.71428571428623
20
736.57142857142833
10
369.71428571428623
20
725.14285714285688
0
LWPOLYLINE
5
188
100
AcDbEntity
8
0
100
AcDbPolyline
90
4
70
1
43
0.0
10
339.4285714285719
20
635.42857142855701
10
339.4285714285719
20
646.85714285712834
10
343.42857142857201
20
646.85714285712834
10
343.4285714285719
20
635.42857142855701
0
LWPOLYLINE
5
189
100
AcDbEntity
8
0
100
AcDbPolyline
90
4
70
1
43
0.0
10
339.4285714285719
20
665.33333333332371
10
339.4285714285719
20
676.76190476189504
10
343.42857142857201
20
676.76190476189504
10
343.4285714285719
20
665.33333333332371
0
LWPOLYLINE
5
190
100
AcDbEntity
8
0
100
AcDbPolyline
90
4
70
1
43
0.0
10
339.4285714285719
20
695.23809523809041
10
339.4285714285719
20
706.66666666666174
10
343.42857142857201
20
706.66666666666163
10
343.4285714285719
20
695.23809523809018
0
LWPOLYLINE
5
191
100
AcDbEntity
8
0
100
AcDbPolyline
90
4
70
1
43
0.0
10
339.4285714285719
20
725.14285714285688
10
339.4285714285719
20
736.57142857142833
10
343.42857142857201
20
736.57142857142833
10
343.4285714285719
20
725.14285714285688
0
LWPOLYLINE
5
192
100
AcDbEntity
8
0
100
AcDbPolyline
90
4
70
1
43
0.0
10
313.14285714285768
20
635.42857142855701
10
313.14285714285768
20
646.85714285712834
10
317.14285714285774
20
646.85714285712834
10
317.14285714285768
20
635.42857142855701
0
LWPOLYLINE
5
193
100
AcDbEntity
8
0
100
AcDbPolyline
90
4
70
1
43
0.0
10
313.14285714285768
20
665.33333333332371
10
313.14285714285768
20
676.76190476189504
10
317.14285714285774
20
676.76190476189504
10
317.14285714285768
20
665.33333333332371
0
LWPOLYLINE
5
194
100
AcDbEntity
8
0
100
AcDbPolyline
90
4
70
1
43
0.0
10
313.14285714285768
20
695.23809523809041
10
313.14285714285768
20
706.66666666666174
10
317.14285714285774
20
706.66666666666163
10
317.14285714285768
20
695.23809523809018
0
LWPOLYLINE
5
195
100
AcDbEntity
8
0
100
AcDbPolyline
90
4
70
1
43
0.0
10
313.14285714285768
20
725.14285714285688
10
313.14285714285768
20
736.57142857142833
10
317.14285714285774
20
736.57142857142833
10
317.14285714285768
20
725.14285714285688
0
LWPOLYLINE
5
196
100
AcDbEntity
8
0
100
AcDbPolyline
90
4
70
1
43
0.0
10
286.8571428571434
20
635.42857142855701
10
286.8571428571434
20
646.85714285712834
10
290.85714285714346
20
646.85714285712834
10
290.8571428571434
20
635.42857142855701
0
LWPOLYLINE
5
197
100
AcDbEntity
8
0
100
AcDbPolyline
90
4
70
1
43
0.0
10
286.8571428571434
20
665.33333333332371
10
286.8571428571434
20
676.76190476189504
10
290.85714285714346
20
676.76190476189504
10
290.8571428571434
20
665.33333333332371
0
LWPOLYLINE
5
198
100
AcDbEntity
8
0
100
AcDbPolyline
90
4
70
1
43
0.0
10
286.8571428571434
20
695.23809523809041
10
286.8571428571434
20
706.66666666666174
10
290.85714285714346
20
706.66666666666163
10
290.8571428571434
20
695.23809523809018
0
LWPOLYLINE
5
199
100
AcDbEntity
8
0
100
AcDbPolyline
90
4
70
1
43
0.0
10
286.8571428571434
20
725.14285714285688
10
286.8571428571434
20
736.57142857142833
10
290.85714285714346
20
736.57142857142833
10
290.8571428571434
20
725.14285714285688
0
LWPOLYLINE
5
200
100
AcDbEntity
8
0
100
AcDbPolyline
90
4
70
1
43
0.0
10
260.57142857142912
20
635.42857142855701
10
260.57142857142912
20
646.85714285712834
10
264.57142857142918
20
646.85714285712834
10
264.57142857142918
20
635.42857142855701
0
LWPOLYLINE
5
201
100
AcDbEntity
8
0
100
AcDbPolyline
90
4
70
1
43
0.0
10
260.57142857142912
20
665.33333333332371
10
260.57142857142912
20
676.76190476189504
10
264.57142857142918
20
676.76190476189504
10
264.57142857142918
20
665.33333333332371
0
LWPOLYLINE
5
202
100
AcDbEntity
8
0
100
AcDbPolyline
90
4
70
1
43
0.0
10
260.57142857142912
20
695.23809523809041
10
260.57142857142912
20
706.66666666666174
10
264.57142857142918
20
706.66666666666163
10
264.57142857142918
20
695.23809523809018
0
LWPOLYLINE
5
203
100
AcDbEntity
8
0
100
AcDbPolyline
90
4
70
1
43
0.0
10
260.57142857142912
20
725.14285714285688
10
260.57142857142912
20
736.57142857142833
10
264.57142857142918
20
736.57142857142833
10
264.57142857142918
20
725.14285714285688
0
LWPOLYLINE
5
204
100
AcDbEntity
8
0
100
AcDbPolyline
90
4
70
1
43
0.0
10
234.28571428571487
20
635.42857142855701
10
234.28571428571487
20
646.85714285712834
10
238.2857142857149
20
646.85714285712834
10
238.2857142857149
20
635.42857142855701
0
LWPOLYLINE
5
205
100
AcDbEntity
8
0
100
AcDbPolyline
90
4
70
1
43
0.0
10
234.28571428571487
20
665.33333333332371
10
234.28571428571487
20
676.76190476189504
10
238.2857142857149
20
676.76190476189504
10
238.2857142857149
20
665.33333333332371
0
LWPOLYLINE
5
206
100
AcDbEntity
8
0
100
AcDbPolyline
90
4
70
1
43
0.0
10
234.28571428571487
20
695.23809523809041
10
234.28571428571487
20
706.66666666666174
10
238.2857142857149
20
706.66666666666163
10
238.2857142857149
20
695.23809523809018
0
LWPOLYLINE
5
207
100
AcDbEntity
8
0
100
AcDbPolyline
90
4
70
1
43
0.0
10
234.28571428571487
20
725.14285714285688
10
234.28571428571487
20
736.57142857142833
10
238.2857142857149
20
736.57142857142833
10
238.2857142857149
20
725.14285714285688
0
LWPOLYLINE
5
208
100
AcDbEntity
8
0
100
AcDbPolyline
90
4
70
1
43
0.0
10
208.00000000000063
20
635.42857142857133
10
208.00000000000063
20
646.85714285714266
10
212.00000000000063
20
646.85714285714266
10
212.00000000000063
20
635.42857142857133
0
LWPOLYLINE
5
209
100
AcDbEntity
8
0
100
AcDbPolyline
90
4
70
1
43
0.0
10
208.00000000000063
20
665.33333333333314
10
208.00000000000063
20
676.76190476190459
10
212.00000000000063
20
676.76190476190459
10
212.00000000000063
20
665.33333333333314
0
LWPOLYLINE
5
210
100
AcDbEntity
8
0
100
AcDbPolyline
90
4
70
1
43
0.0
10
208.00000000000063
20
695.23809523809507
10
208.00000000000063
20
706.6666666666664
10
212.00000000000063
20
706.6666666666664
10
212.00000000000063
20
695.23809523809507
0
LWPOLYLINE
5
211
100
AcDbEntity
8
0
100
AcDbPolyline
90
4
70
1
43
0.0
10
208.00000000000063
20
725.14285714285688
10
208.00000000000063
20
736.57142857142833
10
212.00000000000063
20
736.57142857142833
10
212.00000000000063
20
725.14285714285688
0
CIRCLE
5
212
100
AcDbEntity
8
0
100
AcDbCircle
10
224.00000000000063
20
693.93692936560979
30
0
40
7.4999999999999956
210
0
220
-0
230
1
0
CIRCLE
5
213
100
AcDbEntity
8
0
100
AcDbCircle
10
380.00000000000057
20
633.93692936561001
30
0
40
7.4999999999999956
210
0
220
-0
230
1
0
CIRCLE
5
214
100
AcDbEntity
8
0
100
AcDbCircle
10
380.00000000000057
20
713.93692936560979
30
8.8817841970012523e-15
40
7.5000000000000036
210
0
220
-0
230
1
0
CIRCLE
5
215
100
AcDbEntity
8
0
100
AcDbCircle
10
380.00000000000057
20
673.93692936561001
30
0
40
7.4999999999999956
210
0
220
-0
230
1
0
CIRCLE
5
216
100
AcDbEntity
8
0
100
AcDbCircle
10
380.00000000000057
20
653.93692936561001
30
8.8817841970012523e-15
40
7.4999999999999956
210
0
220
-0
230
1
0
CIRCLE
5
217
100
AcDbEntity
8
0
100
AcDbCircle
10
380.00000000000057
20
733.93692936560979
30
0
40
7.4999999999999956
210
0
220
-0
230
1
0
CIRCLE
5
218
100
AcDbEntity
8
0
100
AcDbCircle
10
380.00000000000057
20
693.93692936560979
30
0
40
7.4999999999999867
210
0
220
-0
230
1
0
CIRCLE
5
219
100
AcDbEntity
8
0
100
AcDbCircle
10
354.00000000000045
20
633.93692936561001
30
0
40
7.4999999999999956
210
0
220
-0
230
1
0
CIRCLE
5
220
100
AcDbEntity
8
0
100
AcDbCircle
10
354.00000000000045
20
713.93692936560979
30
8.8817841970012523e-15
40
7.5000000000000036
210
0
220
-0
230
1
0
CIRCLE
5
221
100
AcDbEntity
8
0
100
AcDbCircle
10
250.00000000000057
20
633.93692936561001
30
0
40
7.4999999999999956
210
0
220
-0
230
1
0
CIRCLE
5
222
100
AcDbEntity
8
0
100
AcDbCircle
10
250.00000000000057
20
713.93692936560979
30
8.8817841970012523e-15
40
7.5000000000000036
210
0
220
-0
230
1
0
CIRCLE
5
223
100
AcDbEntity
8
0
100
AcDbCircle
10
250.00000000000057
20
673.93692936561001
30
0
40
7.4999999999999956
210
0
220
-0
230
1
0
CIRCLE
5
224
100
AcDbEntity
8
0
100
AcDbCircle
10
250.00000000000057
20
653.93692936561001
30
8.8817841970012523e-15
40
7.4999999999999956
210
0
220
-0
230
1
0
CIRCLE
5
225
100
AcDbEntity
8
0
100
AcDbCircle
10
250.00000000000057
20
733.93692936560979
30
0
40
7.4999999999999956
210
0
220
-0
230
1
0
CIRCLE
5
226
100
AcDbEntity
8
0
100
AcDbCircle
10
250.00000000000057
20
693.93692936560979
30
0
40
7.4999999999999867
210
0
220
-0
230
1
0
CIRCLE
5
227
100
AcDbEntity
8
0
100
AcDbCircle
10
224.00000000000063
20
653.93692936561001
30
8.8817841970012523e-15
40
7.4999999999999956
210
0
220
-0
230
1
0
CIRCLE
5
228
100
AcDbEntity
8
0
100
AcDbCircle
10
224.00000000000063
20
633.93692936561001
30
0
40
7.4999999999999956
210
0
220
-0
230
1
0
CIRCLE
5
229
100
AcDbEntity
8
0
100
AcDbCircle
10
224.00000000000063
20
713.93692936560979
30
8.8817841970012523e-15
40
7.5000000000000124
210
0
220
-0
230
1
0
CIRCLE
5
230
100
AcDbEntity
8
0
100
AcDbCircle
10
224.00000000000063
20
733.93692936560979
30
0
40
7.4999999999999956
210
0
220
-0
230
1
0
CIRCLE
5
231
100
AcDbEntity
8
0
100
AcDbCircle
10
224.00000000000063
20
673.93692936561001
30
0
40
7.4999999999999956
210
0
220
-0
230
1
0
CIRCLE
5
232
100
AcDbEntity
8
0
100
AcDbCircle
10
276.00000000000057
20
693.93692936560979
30
0
40
7.4999999999999867
210
0
220
-0
230
1
0
CIRCLE
5
233
100
AcDbEntity
8
0
100
AcDbCircle
10
276.00000000000057
20
733.93692936560979
30
0
40
7.4999999999999956
210
0
220
-0
230
1
0
CIRCLE
5
234
100
AcDbEntity
8
0
100
AcDbCircle
10
276.00000000000057
20
673.93692936561001
30
0
40
7.4999999999999956
210
0
220
-0
230
1
0
CIRCLE
5
235
100
AcDbEntity
8
0
100
AcDbCircle
10
276.00000000000057
20
653.93692936561001
30
8.8817841970012523e-15
40
7.4999999999999956
210
0
220
-0
230
1
0
CIRCLE
5
236
100
AcDbEntity
8
0
100
AcDbCircle
10
276.00000000000057
20
713.93692936560979
30
8.8817841970012523e-15
40
7.5000000000000036
210
0
220
-0
230
1
0
CIRCLE
5
237
100
AcDbEntity
8
0
100
AcDbCircle
10
276.00000000000057
20
633.93692936561001
30
0
40
7.4999999999999956
210
0
220
-0
230
1
0
CIRCLE
5
238
100
AcDbEntity
8
0
100
AcDbCircle
10
302.00000000000057
20
733.93692936560979
30
0
40
7.4999999999999929
210
0
220
-0
230
1
0
CIRCLE
5
239
100
AcDbEntity
8
0
100
AcDbCircle
10
302.00000000000057
20
693.93692936560979
30
0
40
7.4999999999999876
210
0
220
-0
230
1
0
CIRCLE
5
240
100
AcDbEntity
8
0
100
AcDbCircle
10
302.00000000000057
20
653.93692936561001
30
8.8817841970012523e-15
40
7.4999999999999956
210
0
220
-0
230
1
0
CIRCLE
5
241
100
AcDbEntity
8
0
100
AcDbCircle
10
302.00000000000057
20
673.93692936561001
30
0
40
7.4999999999999947
210
0
220
-0
230
1
0
CIRCLE
5
242
100
AcDbEntity
8
0
100
AcDbCircle
10
328.00000000000057
20
693.93692936560979
30
0
40
7.4999999999999867
210
0
220
-0
230
1
0
CIRCLE
5
243
100
AcDbEntity
8
0
100
AcDbCircle
10
328.00000000000057
20
733.93692936560979
30
0
40
7.4999999999999956
210
0
220
-0
230
1
0
CIRCLE
5
244
100
AcDbEntity
8
0
100
AcDbCircle
10
354.00000000000045
20
653.93692936561001
30
8.8817841970012523e-15
40
7.4999999999999956
210
0
220
-0
230
1
0
CIRCLE
5
245
100
AcDbEntity
8
0
100
AcDbCircle
10
354.00000000000045
20
733.93692936560979
30
0
40
7.4999999999999956
210
0
220
-0
230
1
0
CIRCLE
5
246
100
AcDbEntity
8
0
100
AcDbCircle
10
328.00000000000057
20
673.93692936561001
30
0
40
7.4999999999999956
210
0
220
-0
230
1
0
CIRCLE
5
247
100
AcDbEntity
8
0
100
AcDbCircle
10
328.00000000000057
20
713.93692936560979
30
8.8817841970012523e-15
40
7.5000000000000036
210
0
220
-0
230
1
0
CIRCLE
5
248
100
AcDbEntity
8
0
100
AcDbCircle
10
302.00000000000057
20
633.93692936561001
30
0
40
7.4999999999999956
210
0
220
-0
230
1
0
CIRCLE
5
249
100
AcDbEntity
8
0
100
AcDbCircle
10
328.00000000000057
20
653.93692936561001
30
8.8817841970012523e-15
40
7.4999999999999956
210
0
220
-0
230
1
0
CIRCLE
5
250
100
AcDbEntity
8
0
100
AcDbCircle
10
328.00000000000057
20
633.93692936561001
30
0
40
7.4999999999999956
210
0
220
-0
230
1
0
CIRCLE
5
251
100
AcDbEntity
8
0
100
AcDbCircle
10
354.00000000000045
20
693.93692936560979
30
0
40
7.4999999999999867
210
0
220
-0
230
1
0
CIRCLE
5
252
100
AcDbEntity
8
0
100
AcDbCircle
10
302.00000000000057
20
713.93692936560979
30
8.8817841970012523e-15
40
7.5000000000000053
210
0
220
-0
230
1
0
CIRCLE
5
253
100
AcDbEntity
8
0
100
AcDbCircle
10
354.00000000000045
20
673.93692936561001
30
0
40
7.4999999999999956
210
0
220
-0
230
1
0
LWPOLYLINE
5
254
100
AcDbEntity
8
0
100
AcDbPolyline
90
4
70
1
43
0.0
10
402.00000000000045
20
623.99999999999989
10
402.00000000000045
20
747.99999999999966
10
202.00000000000063
20
747.99999999999966
10
202.0000000000006
20
623.99999999999989
0
LWPOLYLINE
5
255
100
AcDbEntity
8
0
100
AcDbPolyline
90
26
70
1
43
0.0
10
444.66666666666686
20
695.99999999999966
10
444.66666666666686
20
699.99999999999977
10
455.00000000000011
20
699.99999999999977
42
0.12587343665089162
10
548
20
674.49999999999977
10
548
20
645.49999999999977
42
0.12587343665089032
10
455.00000000000011
20
619.99999999999977
10
444.66666666666686
20
619.99999999999977
10
444.66666666666686
20
623.99999999999977
10
434.33333333333343
20
623.99999999999977
10
434.33333333333343
20
619.99999999999977
10
424.00000000000011
20
619.99999999999977
10
424.00000000000011
20
631.42857142857122
10
420.00000000000011
20
631.42857142857122
10
420.00000000000011
20
642.85714285714266
10
424.00000000000011
20
642.85714285714266
10
424.00000000000011
20
654.28571428571399
10
420.00000000000011
20
654.28571428571399
10
420.00000000000011
20
665.71428571428555
10
424.00000000000011
20
665.71428571428555
10
424.00000000000011
20
677.14285714285688
10
420.00000000000011
20
677.14285714285688
10
420.00000000000011
20
688.57142857142833
10
424.00000000000011
20
688.57142857142833
10
424.00000000000011
20
699.99999999999977
10
434.33333333333343
20
699.99999999999989
10
434.33333333333343
20
695.99999999999977
0
LWPOLYLINE
5
256
100
AcDbEntity
8
0
100
AcDbPolyline
90
4
70
1
43
0.0
10
536.57142857142856
20
661.99999999999977
10
525.14285714285722
20
661.99999999999977
10
525.14285714285722
20
657.99999999999977
10
536.57142857142867
20
657.99999999999977
0
LWPOLYLINE
5
257
100
AcDbEntity
8
0
100
AcDbPolyline
90
4
70
1
43
0.0
10
508.00000000000006
20
661.99999999999977
10
496.57142857142867
20
661.99999999999977
10
496.57142857142867
20
657.99999999999977
10
508.00000000000011
20
657.99999999999977
0
LWPOLYLINE
5
258
100
AcDbEntity
8
0
100
AcDbPolyline
90
4
70
1
43
0.0
10
479.4285714285715
20
661.99999999999977
10
468.00000000000011
20
661.99999999999977
10
468.00000000000011
20
657.99999999999977
10
479.42857142857156
20
657.99999999999977
0
LWPOLYLINE
5
259
100
AcDbEntity
8
0
100
AcDbPolyline
90
4
70
1
43
0.0
10
450.85714285714295
20
661.99999999999977
10
439.42857142857156
20
661.99999999999977
10
439.42857142857156
20
657.99999999999977
10
450.85714285714295
20
657.99999999999977
0
LWPOLYLINE
5
260
100
AcDbEntity
8
0
100
AcDbPolyline
90
36
70
1
43
0.0
10
432.85714285714334
20
745.5714285714289
10
421.42857142857196
20
745.5714285714289
10
421.42857142857196
20
740.57142857142912
10
432.85714285714334
20
740.57142857142912
10
432.85714285714334
20
736.57142857142901
10
444.28571428571473
20
736.57142857142912
10
444.28571428571473
20
740.57142857142912
10
462.76190476190521
20
740.57142857142912
10
462.76190476190521
20
736.57142857142901
10
474.19047619047666
20
736.57142857142912
10
474.1904761904766
20
740.57142857142912
10
492.66666666666708
20
740.57142857142912
10
492.66666666666708
20
736.57142857142901
10
504.09523809523853
20
736.57142857142912
10
504.09523809523853
20
740.57142857142912
10
522.57142857142901
20
740.57142857142912
10
522.57142857142901
20
736.57142857142901
10
534.00000000000045
20
736.57142857142912
10
534.00000000000045
20
740.57142857142912
10
545.4285714285719
20
740.57142857142912
10
545.42857142857179
20
745.5714285714289
10
534.00000000000045
20
745.57142857142912
10
534.00000000000045
20
749.57142857142901
10
522.57142857142901
20
749.5714285714289
10
522.57142857142901
20
745.5714285714289
10
504.09523809523853
20
745.5714285714289
10
504.09523809523853
20
749.57142857142901
10
492.66666666666708
20
749.5714285714289
10
492.66666666666714
20
745.5714285714289
10
474.19047619047666
20
745.5714285714289
10
474.19047619047666
20
749.57142857142901
10
462.76190476190521
20
749.5714285714289
10
462.76190476190521
20
745.5714285714289
10
444.28571428571473
20
745.5714285714289
10
444.28571428571473
20
749.57142857142901
10
432.85714285714334
20
749.5714285714289
0
LWPOLYLINE
5
261
100
AcDbEntity
8
0
100
AcDbPolyline
90
26
70
1
43
0.0
10
574.33333333333348
20
744.99999999999909
10
574.33333333333348
20
748.9999999999992
10
564.00000000000023
20
748.99999999999932
42
-0.12587343665089282
10
471.00000000000023
20
723.4999999999992
10
471.00000000000023
20
694.49999999999932
42
-0.1258734366508926
10
564.00000000000023
20
668.99999999999932
10
574.33333333333348
20
668.9999999999992
10
574.33333333333348
20
672.99999999999932
10
584.66666666666686
20
672.99999999999943
10
584.66666666666686
20
668.99999999999932
10
595.00000000000023
20
668.99999999999932
10
595.00000000000023
20
680.42857142857076
10
599.00000000000023
20
680.42857142857076
10
599.00000000000023
20
691.85714285714209
10
595.00000000000023
20
691.85714285714209
10
595.00000000000023
20
703.28571428571354
10
599.00000000000023
20
703.28571428571354
10
599.00000000000023
20
714.71428571428487
10
595.00000000000023
20
714.71428571428487
10
595.00000000000023
20
726.14285714285631
10
599.00000000000023
20
726.14285714285643
10
599.00000000000023
20
737.57142857142776
10
595.00000000000023
20
737.57142857142776
10
595.00000000000011
20
748.9999999999992
10
584.66666666666686
20
748.9999999999992
10
584.66666666666686
20
744.99999999999909
0
LWPOLYLINE
5
262
100
AcDbEntity
8
0
100
AcDbPolyline
90
4
70
1
43
0.0
10
482.42857142857167
20
710.9999999999992
10
493.85714285714306
20
710.9999999999992
10
493.85714285714306
20
706.9999999999992
10
482.42857142857167
20
706.9999999999992
0
LWPOLYLINE
5
263
100
AcDbEntity
8
0
100
AcDbPolyline
90
4
70
1
43
0.0
10
511.00000000000028
20
710.9999999999992
10
522.42857142857167
20
710.9999999999992
10
522.42857142857156
20
706.9999999999992
10
511.00000000000023
20
706.9999999999992
0
LWPOLYLINE
5
264
100
AcDbEntity
8
0
100
AcDbPolyline
90
4
70
1
43
0.0
10
539.5714285714289
20
710.9999999999992
10
551.00000000000023
20
710.9999999999992
10
551.00000000000011
20
706.9999999999992
10
539.57142857142878
20
706.9999999999992
0
LWPOLYLINE
5
265
100
AcDbEntity
8
0
100
AcDbPolyline
90
4
70
1
43
0.0
10
568.14285714285734
20
710.9999999999992
10
579.57142857142878
20
710.9999999999992
10
579.57142857142867
20
706.9999999999992
10
568.14285714285734
20
706.9999999999992
0
LWPOLYLINE
5
266
100
AcDbEntity
8
0
100
AcDbPolyline
90
36
70
1
43
0.0
10
413.42857142859032
20
624.4285714285727
10
413.42857142858838
20
635.85714285714403
10
417.42857142858838
20
635.85714285714471
10
417.42857142858645
20
647.28571428571615
10
413.42857142858645
20
647.28571428571536
10
413.42857142858338
20
665.76190476190595
10
417.42857142858333
20
665.76190476190664
10
417.42857142858145
20
677.19047619047819
10
413.42857142858145
20
677.19047619047728
10
413.42857142857832
20
695.66666666666777
10
417.42857142857827
20
695.66666666666845
10
417.42857142857639
20
707.09523809524001
10
413.42857142857639
20
707.09523809523932
10
413.42857142857326
20
725.57142857142981
10
417.42857142857315
20
725.57142857143037
10
417.42857142857127
20
737.00000000000182
10
413.42857142857127
20
737.00000000000114
10
413.42857142856934
20
748.42857142857258
10
408.42857142856934
20
748.42857142857167
10
408.42857142857127
20
737.00000000000034
10
404.42857142857133
20
736.99999999999955
10
404.42857142857326
20
725.57142857142821
10
408.42857142857326
20
725.5714285714289
10
408.42857142857639
20
707.09523809523841
10
404.42857142857639
20
707.09523809523773
10
404.42857142857832
20
695.66666666666629
10
408.42857142857832
20
695.66666666666708
10
408.42857142858145
20
677.1904761904766
10
404.42857142858145
20
677.19047619047592
10
404.42857142858338
20
665.76190476190436
10
408.42857142858338
20
665.76190476190504
10
408.42857142858645
20
647.28571428571468
10
404.42857142858651
20
647.28571428571399
10
404.42857142858838
20
635.85714285714243
10
408.42857142858838
20
635.85714285714312
10
408.42857142859032
20
624.42857142857179
0
LWPOLYLINE
5
267
100
AcDbEntity
8
0
100
AcDbPolyline
90
36
70
1
43
0.0
10
595.20299969112887
20
644.96985982123408
10
583.94805394241803
20
642.98530921932627
10
583.25346123175018
20
646.92454023137498
10
571.99851548303934
20
644.93998962946716
10
572.69310819370708
20
641.00075861741846
10
554.49761256662441
20
637.79240181100079
10
553.80301985595668
20
641.73163282304949
10
542.54807410724561
20
639.74708222114168
10
543.24266681791346
20
635.80785120909297
10
525.0471711908308
20
632.5994944026753
10
524.35257848016306
20
636.53872541472413
10
513.09763273145211
20
634.55417481281631
10
513.79222544211984
20
630.61494380076749
10
495.59672981503718
20
627.40658699434994
10
494.90213710436944
20
631.34581800639864
10
483.64719135565849
20
629.36126740449095
10
484.34178406632623
20
625.42203639244212
10
473.08683831761527
20
623.43748579053431
10
473.95507920594991
20
618.51344702547317
10
485.21002495466087
20
620.49799762738098
10
485.9046176653286
20
616.55876661533216
10
497.15956341403961
20
618.54331721723997
10
496.46497070337182
20
622.4825482292888
10
514.66046633045448
20
625.69090503570646
10
515.35505904112233
20
621.75167402365764
10
526.61000478983328
20
623.73622462556546
10
525.91541207916543
20
627.67545563761428
10
544.1109077062481
20
630.88381244403195
10
544.80550041691583
20
626.94458143198312
10
556.0604461656269
20
628.92913203389082
10
555.36585345495905
20
632.86836304593965
10
573.56134908204172
20
636.07671985235743
10
574.25594179270956
20
632.13748884030861
10
585.5108875414204
20
634.12203944221631
10
584.81629483075267
20
638.06127045426524
10
596.07124057946362
20
640.04582105617305
0
LWPOLYLINE
5
268
100
AcDbEntity
8
0
100
AcDbPolyline
90
36
70
1
43
0.0
10
589.85714285715517
20
626.14285714285586
10
589.85714285715392
20
614.71428571428442
10
585.85714285715392
20
614.71428571428498
10
585.85714285715267
20
603.28571428571354
10
589.85714285715267
20
603.28571428571308
10
589.85714285715051
20
584.8095238095226
10
585.85714285715062
20
584.80952380952306
10
585.85714285714926
20
573.38095238095161
10
589.85714285714926
20
573.38095238095116
10
589.85714285714721
20
554.90476190476068
10
585.85714285714721
20
554.90476190476113
10
585.85714285714596
20
543.47619047618969
10
589.85714285714596
20
543.47619047618923
10
589.85714285714391
20
524.99999999999875
10
585.85714285714391
20
524.9999999999992
10
585.85714285714266
20
513.57142857142776
10
589.85714285714255
20
513.5714285714273
10
589.8571428571413
20
502.14285714285597
10
594.8571428571413
20
502.14285714285541
10
594.85714285714255
20
513.57142857142674
10
598.85714285714255
20
513.5714285714264
10
598.8571428571438
20
524.99999999999784
10
594.85714285714391
20
524.99999999999818
10
594.85714285714596
20
543.47619047618866
10
598.85714285714596
20
543.47619047618821
10
598.85714285714721
20
554.90476190475965
10
594.85714285714721
20
554.90476190476011
10
594.85714285714926
20
573.38095238095059
10
598.85714285714926
20
573.38095238095013
10
598.85714285715051
20
584.80952380952158
10
594.85714285715051
20
584.80952380952203
10
594.85714285715267
20
603.28571428571252
10
598.85714285715255
20
603.28571428571206
10
598.85714285715392
20
614.71428571428351
10
594.85714285715392
20
614.71428571428396
10
594.85714285715517
20
626.14285714285541
0
LWPOLYLINE
5
269
100
AcDbEntity
8
0
100
AcDbPolyline
90
36
70
1
43
0.0
10
463.57142857141292
20
506.09523809523239
10
474.99999999998431
20
506.09523809523233
10
474.99999999998431
20
502.09523809523233
10
486.42857142855576
20
502.09523809523228
10
486.42857142855576
20
506.09523809523228
10
504.90476190474624
20
506.09523809523216
10
504.90476190474618
20
502.09523809523216
10
516.33333333331757
20
502.09523809523211
10
516.33333333331757
20
506.09523809523211
10
534.80952380950816
20
506.09523809523205
10
534.80952380950816
20
502.09523809523205
10
546.2380952380795
20
502.09523809523199
10
546.2380952380795
20
506.09523809523188
10
564.71428571426998
20
506.09523809523182
10
564.71428571426998
20
502.09523809523193
10
576.14285714284142
20
502.09523809523182
10
576.14285714284142
20
506.09523809523182
10
587.57142857141287
20
506.09523809523176
10
587.57142857141287
20
511.09523809523176
10
576.14285714284142
20
511.09523809523176
10
576.14285714284142
20
515.09523809523171
10
564.71428571426998
20
515.09523809523182
10
564.71428571427009
20
511.09523809523188
10
546.23809523807961
20
511.09523809523193
10
546.2380952380795
20
515.09523809523193
10
534.80952380950816
20
515.09523809523205
10
534.80952380950816
20
511.09523809523205
10
516.33333333331768
20
511.09523809523211
10
516.33333333331757
20
515.09523809523205
10
504.90476190474624
20
515.09523809523216
10
504.90476190474624
20
511.09523809523216
10
486.42857142855576
20
511.09523809523228
10
486.42857142855576
20
515.09523809523228
10
474.99999999998437
20
515.09523809523228
10
474.99999999998437
20
511.09523809523233
10
463.57142857141292
20
511.09523809523239
0
LWPOLYLINE
5
270
100
AcDbEntity
8
0
100
AcDbPolyline
90
36
70
1
43
0.0
10
550.99999999999977
20
529.00000000000023
10
539.57142857142844
20
529.00000000000023
10
539.57142857142844
20
533.00000000000011
10
528.142857142857
20
533.00000000000023
10
528.142857142857
20
529.00000000000023
10
509.66666666666652
20
529.00000000000023
10
509.66666666666652
20
533.00000000000011
10
498.23809523809518
20
533.00000000000023
10
498.23809523809518
20
529.00000000000023
10
479.7619047619047
20
529.00000000000023
10
479.7619047619047
20
533.00000000000011
10
468.33333333333326
20
533.00000000000023
10
468.33333333333326
20
529.00000000000023
10
449.85714285714278
20
529.00000000000023
10
449.85714285714278
20
533.00000000000011
10
438.42857142857144
20
533.00000000000023
10
438.42857142857144
20
529.00000000000023
10
427
20
529.00000000000023
10
427
20
524.00000000000023
10
438.42857142857144
20
524.00000000000011
10
438.42857142857144
20
520.00000000000011
10
449.85714285714278
20
520.00000000000023
10
449.85714285714278
20
524.00000000000023
10
468.33333333333326
20
524.00000000000011
10
468.33333333333326
20
520.00000000000011
10
479.7619047619047
20
520.00000000000023
10
479.7619047619047
20
524.00000000000023
10
498.23809523809518
20
524.00000000000011
10
498.23809523809518
20
520.00000000000011
10
509.66666666666652
20
520.00000000000023
10
509.66666666666652
20
524.00000000000023
10
528.142857142857
20
524.00000000000011
10
528.142857142857
20
520.00000000000011
10
539.57142857142844
20
520.00000000000023
10
539.57142857142844
20
524.00000000000023
10
550.99999999999989
20
524.00000000000023
0
LWPOLYLINE
5
271
100
AcDbEntity
8
0
100
AcDbPolyline
90
36
70
1
43
0.0
10
551
20
544.00000000000068
10
539.57142857142856
20
544.00000000000068
10
539.57142857142856
20
548.00000000000057
10
528.14285714285711
20
548.00000000000057
10
528.14285714285711
20
544.00000000000068
10
509.66666666666669
20
544.00000000000068
10
509.66666666666669
20
548.00000000000057
10
498.23809523809524
20
548.00000000000057
10
498.2380952380953
20
544.00000000000068
10
479.76190476190482
20
544.00000000000068
10
479.76190476190482
20
548.00000000000057
10
468.33333333333343
20
548.00000000000057
10
468.33333333333343
20
544.00000000000068
10
449.85714285714295
20
544.00000000000068
10
449.85714285714295
20
548.00000000000057
10
438.42857142857156
20
548.00000000000057
10
438.42857142857156
20
544.00000000000068
10
427.00000000000011
20
544.00000000000068
10
427.00000000000011
20
539.00000000000068
10
438.42857142857156
20
539.00000000000068
10
438.42857142857156
20
535.00000000000068
10
449.85714285714295
20
535.00000000000068
10
449.85714285714295
20
539.00000000000068
10
468.33333333333343
20
539.00000000000068
10
468.33333333333343
20
535.00000000000068
10
479.76190476190482
20
535.00000000000068
10
479.76190476190476
20
539.00000000000068
10
498.23809523809524
20
539.00000000000068
10
498.2380952380953
20
535.00000000000068
10
509.66666666666669
20
535.00000000000068
10
509.66666666666663
20
539.00000000000068
10
528.14285714285711
20
539.00000000000068
10
528.14285714285711
20
535.00000000000068
10
539.57142857142856
20
535.00000000000068
10
539.57142857142844
20
539.00000000000068
10
551
20
539.00000000000068
0
LWPOLYLINE
5
272
100
AcDbEntity
8
0
100
AcDbPolyline
90
36
70
1
43
0.0
10
461
20
511.00000000000017
10
449.57142857142861
20
511.00000000000017
10
449.57142857142861
20
515.00000000000011
10
438.14285714285717
20
515.00000000000011
10
438.14285714285717
20
511.00000000000017
10
419.66666666666669
20
511.00000000000017
10
419.66666666666669
20
515.00000000000011
10
408.2380952380953
20
515.00000000000011
10
408.2380952380953
20
511.00000000000017
10
389.76190476190482
20
511.00000000000017
10
389.76190476190482
20
515.00000000000011
10
378.33333333333343
20
515.00000000000011
10
378.33333333333343
20
511.00000000000017
10
359.85714285714295
20
511.00000000000017
10
359.85714285714295
20
515.00000000000011
10
348.42857142857156
20
515.00000000000011
10
348.42857142857156
20
511.00000000000017
10
337.00000000000017
20
511.00000000000017
10
337.00000000000017
20
506.00000000000017
10
348.42857142857156
20
506.00000000000017
10
348.42857142857156
20
502.00000000000017
10
359.85714285714295
20
502.00000000000017
10
359.85714285714295
20
506.00000000000017
10
378.33333333333343
20
506.00000000000017
10
378.33333333333343
20
502.00000000000017
10
389.76190476190482
20
502.00000000000017
10
389.76190476190482
20
506.00000000000017
10
408.2380952380953
20
506.00000000000017
10
408.2380952380953
20
502.00000000000017
10
419.66666666666669
20
502.00000000000017
10
419.66666666666669
20
506.00000000000017
10
438.14285714285717
20
506.00000000000017
10
438.14285714285722
20
502.00000000000017
10
449.57142857142861
20
502.00000000000017
10
449.57142857142861
20
506.00000000000017
10
461
20
506.00000000000017
0
CIRCLE
5
273
100
AcDbEntity
8
0
100
AcDbCircle
10
571.00000000000034
20
605
30
0
40
9.9999999999999911
210
-1.8546030753437128e-68
220
-1.5407439555097952e-33
230
1
0
CIRCLE
5
274
100
AcDbEntity
8
0
100
AcDbCircle
10
571.00000000000034
20
583.00000000000034
30
4.9303806576313238e-31
40
9.9999999999999911
210
-1.8546030753437128e-68
220
-1.5407439555097952e-33
230
1
0
CIRCLE
5
275
100
AcDbEntity
8
0
100
AcDbCircle
10
548.00000000000034
20
583.00000000000034
30
-1.4791141972893971e-30
40
9.9999999999999911
210
-1.8546030753437128e-68
220
-1.5407439555097952e-33
230
1
0
CIRCLE
5
276
100
AcDbEntity
8
0
100
AcDbCircle
10
548.00000000000034
20
604.99999999999989
30
-4.9303806576313238e-31
40
9.9999999999999911
210
-1.8546030753437128e-68
220
-1.5407439555097952e-33
230
1
0
CIRCLE
5
277
100
AcDbEntity
8
0
100
AcDbCircle
10
525.00000000000023
20
605.00000000000011
30
-9.8607613152626476e-31
40
9.9999999999999911
210
0
220
-0
230
1
0
CIRCLE
5
278
100
AcDbEntity
8
0
100
AcDbCircle
10
525.00000000000023
20
583.00000000000023
30
-9.8607613152626476e-31
40
9.9999999999999911
210
0
220
-0
230
1
0
CIRCLE
5
279
100
AcDbEntity
8
0
100
AcDbCircle
10
525.00000000000023
20
560.99999999999989
30
9.8607613152626476e-31
40
9.9999999999999911
210
-1.8546030753437095e-68
220
-1.5407439555097924e-33
230
1
0
CIRCLE
5
280
100
AcDbEntity
8
0
100
AcDbCircle
10
548.00000000000023
20
560.99999999999966
30
0
40
9.9999999999999911
210
0
220
-0
230
1
0
CIRCLE
5
281
100
AcDbEntity
8
0
100
AcDbCircle
10
571.00000000000023
20
560.99999999999977
30
-9.8607613152626476e-31
40
9.9999999999999911
210
0
220
-0
230
1
0
CIRCLE
5
282
100
AcDbEntity
8
0
100
AcDbCircle
10
502.00000000000034
20
605.00000000000011
30
-4.9303806576313238e-31
40
9.9999999999999911
210
2.3182538441796363e-68
220
1.5407439555097921e-33
230
1
0
CIRCLE
5
283
100
AcDbEntity
8
0
100
AcDbCircle
10
502.00000000000045
20
583.00000000000023
30
-1.4791141972893971e-30
40
9.9999999999999911
210
2.3182538441796363e-68
220
1.5407439555097921e-33
230
1
0
CIRCLE
5
284
100
AcDbEntity
8
0
100
AcDbCircle
10
502.00000000000045
20
560.99999999999989
30
-9.8607613152626476e-31
40
9.9999999999999911
210
-2.3182538441796371e-68
220
-1.5407439555097924e-33
230
1
0
CIRCLE
5
285
100
AcDbEntity
8
0
100
AcDbCircle
10
478.00000000000017
20
560.99999999999977
30
9.8607613152626476e-31
40
9.9999999999999911
210
-1.8546030753437111e-68
220
-1.5407439555097938e-33
230
1
0
CIRCLE
5
286
100
AcDbEntity
8
0
100
AcDbCircle
10
478.00000000000023
20
583.00000000000034
30
1.9721522630525295e-30
40
9.9999999999999911
210
-1.8546030753437103e-68
220
-1.5407439555097931e-33
230
1
0
CIRCLE
5
287
100
AcDbEntity
8
0
100
AcDbCircle
10
478.00000000000034
20
604.99999999999989
30
0
40
9.9999999999999911
210
0
220
-0
230
1
0
CIRCLE
5
288
100
AcDbEntity
8
0
100
AcDbCircle
10
455.00000000000028
20
604.99999999999977
30
-9.8607613152626476e-31
40
9.9999999999999911
210
0
220
-0
230
1
0
CIRCLE
5
289
100
AcDbEntity
8
0
100
AcDbCircle
10
455.00000000000023
20
583.00000000000023
30
9.8607613152626476e-31
40
9.9999999999999911
210
-1.8546030753437103e-68
220
-1.5407439555097931e-33
230
1
0
CIRCLE
5
290
100
AcDbEntity
8
0
100
AcDbCircle
10
455.00000000000028
20
560.99999999999977
30
9.8607613152626476e-31
40
9.9999999999999911
210
-1.8546030753437111e-68
220
-1.5407439555097938e-33
230
1
0
CIRCLE
5
291
100
AcDbEntity
8
0
100
AcDbCircle
10
432.00000000000034
20
560.99999999999932
30
9.8607613152626476e-31
40
9.9999999999999911
210
-1.8546030753437062e-68
220
-1.5407439555097897e-33
230
1
0
CIRCLE
5
292
100
AcDbEntity
8
0
100
AcDbCircle
10
432.0000000000004
20
583
30
0
40
9.9999999999999911
210
0
220
-0
230
1
0
CIRCLE
5
293
100
AcDbEntity
8
0
100
AcDbCircle
10
432.0000000000004
20
604.99999999999977
30
0
40
9.9999999999999911
210
0
220
-0
230
1
0
CIRCLE
5
294
100
AcDbEntity
8
0
100
AcDbCircle
10
385.00000000000028
20
611.99999999999989
30
-9.8607613152626476e-31
40
9.9999999999999911
210
-1.8546030753437111e-68
220
-1.5407439555097952e-33
230
1
0
CIRCLE
5
295
100
AcDbEntity
8
0
100
AcDbCircle
10
409.00000000000034
20
611.99999999999955
30
0
40
9.9999999999999911
210
-1.8546030753437053e-68
220
-1.5407439555097897e-33
230
1
0
CIRCLE
5
296
100
AcDbEntity
8
0
100
AcDbCircle
10
409.00000000000034
20
590
30
0
40
9.9999999999999911
210
-1.8546030753437053e-68
220
-1.5407439555097897e-33
230
1
0
CIRCLE
5
297
100
AcDbEntity
8
0
100
AcDbCircle
10
409.00000000000034
20
567.99999999999932
30
0
40
9.9999999999999911
210
0
220
-0
230
1
0
CIRCLE
5
298
100
AcDbEntity
8
0
100
AcDbCircle
10
385.00000000000028
20
567.99999999999966
30
0
40
9.9999999999999911
210
0
220
-0
230
1
0
CIRCLE
5
299
100
AcDbEntity
8
0
100
AcDbCircle
10
385.00000000000028
20
590.00000000000011
30
0
40
9.9999999999999911
210
0
220
-0
230
1
0
CIRCLE
5
300
100
AcDbEntity
8
0
100
AcDbCircle
10
362.00000000000023
20
611.99999999999989
30
0
40
9.9999999999999911
210
-1.8546030753437111e-68
220
-1.5407439555097952e-33
230
1
0
CIRCLE
5
301
100
AcDbEntity
8
0
100
AcDbCircle
10
362.00000000000023
20
590.00000000000011
30
9.8607613152626476e-31
40
9.9999999999999911
210
0
220
-0
230
1
0
CIRCLE
5
302
100
AcDbEntity
8
0
100
AcDbCircle
10
362.00000000000023
20
567.99999999999966
30
0
40
9.9999999999999911
210
0
220
-0
230
1
0
CIRCLE
5
303
100
AcDbEntity
8
0
100
AcDbCircle
10
339.00000000000034
20
567.99999999999955
30
9.8607613152626476e-31
40
9.9999999999999911
210
0
220
-0
230
1
0
CIRCLE
5
304
100
AcDbEntity
8
0
100
AcDbCircle
10
339.00000000000034
20
590
30
9.8607613152626476e-31
40
9.9999999999999911
210
-1.8546030753437078e-68
220
-1.5407439555097924e-33
230
1
0
CIRCLE
5
305
100
AcDbEntity
8
0
100
AcDbCircle
10
339.00000000000034
20
611.99999999999966
30
9.8607613152626476e-31
40
9.9999999999999911
210
-1.8546030753437078e-68
220
-1.5407439555097924e-33
230
1
0
CIRCLE
5
306
100
AcDbEntity
8
0
100
AcDbCircle
10
316.00000000000051
20
567.99999999999943
30
9.8607613152626476e-31
40
9.9999999999999911
210
-1.8546030753437078e-68
220
-1.5407439555097931e-33
230
1
0
CIRCLE
5
307
100
AcDbEntity
8
0
100
AcDbCircle
10
292.00000000000051
20
611.99999999999977
30
0
40
9.9999999999999911
210
-1.3909523065077775e-68
220
-1.5407439555097931e-33
230
1
0
CIRCLE
5
308
100
AcDbEntity
8
0
100
AcDbCircle
10
292.00000000000057
20
590
30
-9.8607613152626476e-31
40
9.9999999999999911
210
1.3909523065077803e-68
220
1.5407439555097935e-33
230
1
0
CIRCLE
5
309
100
AcDbEntity
8
0
100
AcDbCircle
10
292.00000000000057
20
567.99999999999955
30
0
40
9.9999999999999911
210
0
220
-0
230
1
0
CIRCLE
5
310
100
AcDbEntity
8
0
100
AcDbCircle
10
269.00000000000045
20
567.99999999999943
30
9.8607613152626476e-31
40
9.9999999999999911
210
0
220
-0
230
1
0
CIRCLE
5
311
100
AcDbEntity
8
0
100
AcDbCircle
10
246.00000000000054
20
567.99999999999932
30
9.8607613152626476e-31
40
9.9999999999999911
210
0
220
-0
230
1
0
CIRCLE
5
312
100
AcDbEntity
8
0
100
AcDbCircle
10
246.00000000000051
20
590.00000000000011
30
9.8607613152626476e-31
40
9.9999999999999911
210
-1.8546030753437045e-68
220
-1.5407439555097904e-33
230
1
0
CIRCLE
5
313
100
AcDbEntity
8
0
100
AcDbCircle
10
246.00000000000051
20
611.99999999999955
30
9.8607613152626476e-31
40
9.9999999999999911
210
-1.8546030753437045e-68
220
-1.5407439555097904e-33
230
1
0
CIRCLE
5
314
100
AcDbEntity
8
0
100
AcDbCircle
10
223.00000000000054
20
589.99999999999989
30
0
40
9.9999999999999911
210
0
220
-0
230
1
0
CIRCLE
5
315
100
AcDbEntity
8
0
100
AcDbCircle
10
223.00000000000054
20
567.99999999999932
30
0
40
9.9999999999999911
210
-1.8546030753437045e-68
220
-1.5407439555097904e-33
230
1
0
CIRCLE
5
316
100
AcDbEntity
8
0
100
AcDbCircle
10
223.00000000000054
20
611.99999999999943
30
9.8607613152626476e-31
40
9.9999999999999911
210
0
220
-0
230
1
0
CIRCLE
5
317
100
AcDbEntity
8
0
100
AcDbCircle
10
269.00000000000045
20
611.99999999999966
30
0
40
9.9999999999999911
210
0
220
-0
230
1
0
CIRCLE
5
318
100
AcDbEntity
8
0
100
AcDbCircle
10
269.00000000000045
20
590.00000000000011
30
0
40
9.9999999999999911
210
-1.8546030753437078e-68
220
-1.5407439555097931e-33
230
1
0
CIRCLE
5
319
100
AcDbEntity
8
0
100
AcDbCircle
10
316.00000000000045
20
589.99999999999989
30
9.8607613152626476e-31
40
9.9999999999999911
210
0
220
-0
230
1
0
CIRCLE
5
320
100
AcDbEntity
8
0
100
AcDbCircle
10
316.00000000000045
20
611.99999999999966
30
-9.8607613152626476e-31
40
9.9999999999999911
210
0
220
-0
230
1
0
ENDSEC
0
SECTION
2
OBJECTS
0
DICTIONARY
5
C
100
AcDbDictionary
3
ACAD_GROUP
350
D
3
ACAD_MLINESTYLE
350
17
0
DICTIONARY
5
D
100
AcDbDictionary
0
DICTIONARY
5
1A
330
C
100
AcDbDictionary
0
DICTIONARY
5
17
100
AcDbDictionary
0
ENDSEC
0
EOF
